# xmcd CD database file
#
# Track frame offsets:
#	150
#	19177
#	37135
#	59897
#	73530
#	88015
#	107685
#	126200
#	147122
#	163785
#	189595
#	204170
#	221902
#	239272
#	254809
#
# Disc length: 3640 seconds
#
# Revision: 0
# Processed by: cddbd v1.4PL0 Copyright (c) Steve Scherf et al.
# Submitted via: CDex 1.50
#
DISCID=ea0e360f
DTITLE=Robin Miller - Transcendence
DYEAR=1995
DGENRE=New Age
TTITLE0=Transcendence
TTITLE1=Forever One
TTITLE2=Guardians
TTITLE3=Tears of Joy
TTITLE4=In Mother's Arms
TTITLE5=Voices of Eternity
TTITLE6=Touching
TTITLE7=The Love That We Are
TTITLE8=Visions
TTITLE9=Creation
TTITLE10=A Romance of Life
TTITLE11=In Loving Hearts
TTITLE12=Thoughts
TTITLE13=The Sould of Me
TTITLE14=Messengers on the Wind
EXTD=YEAR: 1995
EXTT0=
EXTT1=
EXTT2=
EXTT3=
EXTT4=
EXTT5=
EXTT6=
EXTT7=
EXTT8=
EXTT9=
EXTT10=
EXTT11=
EXTT12=
EXTT13=
EXTT14=
PLAYORDER=
